name analog
datacolumns 19
datarows 27
range 0.0 0.013000000000000001
endheader
time	ground_force_vx	ground_force_vy	ground_force_vz	ground_force_px	ground_force_py	ground_force_pz	l_ground_force_vx	l_ground_force_vy	l_ground_force_vz	l_ground_force_px	l_ground_force_py	l_ground_force_pz	ground_torque_x	ground_torque_y	ground_torque_z	l_ground_torque_x	l_ground_torque_y	l_ground_torque_z
0.0	-0.0	-0.0	-0.0	0.2652051150798797	15.24614715576172	-249.17083740234372	-1.5071152448654177	-14.972935676574709	-249.812255859375	-0.0	-0.0	-0.0	-0.0	-0.0	-0.0	83294.90625	-11947.0947265625	-612.825927734375
0.0005	-0.0	-0.0	-0.0	0.4493219554424286	15.282052993774414	-248.4469757080078	-0.8879532217979431	-15.10385036468506	-252.08413696289065	-0.0	-0.0	-0.0	-0.0	-0.0	-0.0	83666.671875	-11940.2939453125	-671.7673950195312
0.001	-0.0	-0.0	-0.0	0.3117694556713104	15.599687576293944	-248.64236450195312	-1.2426420450210571	-14.750409126281738	-252.0929107666016	-0.0	-0.0	-0.0	-0.0	-0.0	-0.0	83515.8515625	-11987.2529296875	-657.0081787109375
0.0015	-0.0	-0.0	-0.0	0.2209984511137008	15.41874885559082	-249.52964782714844	-1.063961148262024	-15.057998657226562	-252.0852203369141	-0.0	-0.0	-0.0	-0.0	-0.0	-0.0	83499.7265625	-11920.8544921875	-686.8543701171875
0.002	-0.0	-0.0	-0.0	0.0	15.15216827392578	-248.638671875	-1.196560621261597	-14.572254180908203	-251.56292724609372	-0.0	-0.0	-0.0	-0.0	-0.0	-0.0	83968.265625	-12101.8193359375	-656.8843994140625
0.0025	-0.0	-0.0	-0.0	0.3130059838294983	15.508177757263184	-247.93637084960935	-1.153240203857422	-15.014145851135254	-252.26043701171875	-0.0	-0.0	-0.0	-0.0	-0.0	-0.0	83894.46875	-11866.1162109375	-686.9066772460938
0.003	-0.0	-0.0	-0.0	0.2680203020572662	15.373634338378906	-248.28549194335935	-0.8874044418334961	-14.705634117126465	-252.7857666015625	-0.0	-0.0	-0.0	-0.0	-0.0	-0.0	84009.671875	-12142.955078125	-657.0744018554688
0.0035	-0.0	-0.0	-0.0	0.4458189308643341	15.10771942138672	-247.4039306640625	-0.9758245944976808	-14.749715805053713	-254.7061309814453	-0.0	-0.0	-0.0	-0.0	-0.0	-0.0	84277.390625	-12060.0146484375	-701.5403442382812
0.004	-0.0	-0.0	-0.0	0.4015830159187317	15.063037872314451	-249.8739013671875	-1.5076383352279663	-15.058626174926758	-253.1337432861328	-0.0	-0.0	-0.0	-0.0	-0.0	-0.0	84127.96875	-12147.9306640625	-805.776611328125
0.0045000000000000005	-0.0	-0.0	-0.0	-0.0446219928562641	15.063138008117676	-248.2856292724609	-1.0197666883468628	-15.014415740966797	-251.912353515625	-0.0	-0.0	-0.0	-0.0	-0.0	-0.0	84124.7890625	-12266.7431640625	-746.139892578125
0.005	-0.0	-0.0	-0.0	0.5801512598991394	15.196073532104492	-249.6952209472656	-0.6663955450057983	-14.74972152709961	-253.1365966796875	-0.0	-0.0	-0.0	-0.0	-0.0	-0.0	84275.4765625	-11985.2568359375	-701.254150390625
0.0055	-0.0	-0.0	-0.0	-0.0441362261772155	15.46396827697754	-248.2842559814453	-0.8424778580665588	-14.793608665466309	-254.70718383789065	-0.0	-0.0	-0.0	-0.0	-0.0	-0.0	84213.1796875	-12226.962890625	-731.4011840820312
0.006	-0.0	-0.0	-0.0	-0.0004678294062614	15.641684532165527	-248.8124847412109	-0.933221995830536	-14.838043212890623	-252.95895385742188	-0.0	-0.0	-0.0	-0.0	-0.0	-0.0	84313.515625	-12116.4912109375	-627.6126708984375
0.006500000000000001	-0.0	-0.0	-0.0	-0.3113200068473816	15.64024829864502	-247.40374755859372	-0.7975510954856873	-15.23338508605957	-253.82989501953125	-0.0	-0.0	-0.0	-0.0	-0.0	-0.0	84368.5859375	-12195.7958984375	-701.1171264648438
0.007	-0.0	-0.0	-0.0	-0.0877409279346466	15.4180908203125	-248.11618041992188	-0.6648464202880859	-15.059329986572266	-254.18618774414065	-0.0	-0.0	-0.0	-0.0	-0.0	-0.0	84262.5703125	-12129.5595703125	-552.920654296875
0.0075	-0.0	-0.0	-0.0	-0.088320568203926	15.417780876159668	-247.7610015869141	-0.709686279296875	-14.880526542663574	-255.5878143310547	-0.0	-0.0	-0.0	-0.0	-0.0	-0.0	84484.546875	-12161.03515625	-583.2965087890625
0.008	-0.0	-0.0	-0.0	-0.1343325227499008	15.640836715698242	-248.4518585205078	-0.7546746730804443	-14.662660598754885	-254.7185516357422	-0.0	-0.0	-0.0	-0.0	-0.0	-0.0	84568.71875	-12193.19921875	-582.4981079101562
0.0085	-0.0	-0.0	-0.0	0.092681348323822	15.197311401367188	-247.7671661376953	-0.8871078491210938	-14.878747940063477	-254.8588104248047	-0.0	-0.0	-0.0	-0.0	-0.0	-0.0	84516.71875	-12463.6279296875	-582.1622924804688
0.009000000000000001	-0.0	-0.0	-0.0	-0.5378872752189636	15.726927757263184	-247.036376953125	-0.3143453001976013	-14.574614524841309	-255.05221557617188	-0.0	-0.0	-0.0	-0.0	-0.0	-0.0	84568.4765625	-12197.345703125	-702.3203125
0.0095	-0.0	-0.0	-0.0	-0.0877744108438491	15.643102645874023	-247.21458435058597	-0.7565408945083618	-14.704730987548828	-254.16925048828125	-0.0	-0.0	-0.0	-0.0	-0.0	-0.0	84900.4375	-12369.0517578125	-731.8777465820312
0.01	-0.0	-0.0	-0.0	0.092393010854721	15.238119125366213	-247.59173583984372	-0.707865834236145	-14.699216842651367	-255.058837890625	-0.0	-0.0	-0.0	-0.0	-0.0	-0.0	84965.3125	-12221.4013671875	-596.9091186523438
0.0105	-0.0	-0.0	-0.0	0.3148386478424072	15.372394561767578	-246.18701171875	-0.8456968069076538	-14.66335391998291	-256.2618408203125	-0.0	-0.0	-0.0	-0.0	-0.0	-0.0	85132.6640625	-12287.029296875	-586.3848266601562
0.011	-0.0	-0.0	-0.0	-0.0892105102539062	15.013829231262209	-246.86541748046875	-1.2894365787506104	-14.704522132873535	-256.44775390625	-0.0	-0.0	-0.0	-0.0	-0.0	-0.0	85167.359375	-12455.0185546875	-701.4080200195312
0.0115	-0.0	-0.0	-0.0	-0.1804353296756744	15.24129867553711	-246.1424865722656	-0.7983970642089844	-14.754183769226074	-256.62646484375	-0.0	-0.0	-0.0	-0.0	-0.0	-0.0	85041.53125	-12371.1181640625	-777.8285522460938
0.012	-0.0	-0.0	-0.0	-0.0435265190899372	15.330429077148438	-245.9770050048828	-1.0237492322921753	-14.661399841308594	-255.7301177978516	-0.0	-0.0	-0.0	-0.0	-0.0	-0.0	85166.2265625	-12264.4306640625	-714.7949829101562
0.0125	-0.0	-0.0	-0.0	-0.0869296044111251	15.15216827392578	-246.1664123535156	-0.790878415107727	-14.744730949401855	-255.89854431152344	-0.0	-0.0	-0.0	-0.0	-0.0	-0.0	85301.2265625	-12630.37109375	-719.5968017578125
0.013000000000000001	-0.0	-0.0	-0.0	-0.3110187649726867	15.3255615234375	-246.51959228515625	-0.709686279296875	-15.014686584472656	-256.9965209960937	-0.0	-0.0	-0.0	-0.0	-0.0	-0.0	85414.9609375	-12599.0830078125	-612.8760986328125
